<svg width="200" height="200" viewBox="0 0 200 200" fill="none" xmlns="http://www.w3.org/2000/svg">
  <!-- Blob Shape 1 -->
  <path id="blob1" d="M100,20 Q150,40 160,90 Q150,140 100,160 Q50,140 40,90 Q50,40 100,20 Z" 
        fill="url(#blobGradient1)" opacity="0.6" />
  
  <!-- Blob Shape 2 (for morphing) -->
  <path id="blob2" d="M100,30 Q140,50 155,100 Q140,150 100,170 Q60,150 45,100 Q60,50 100,30 Z" 
        fill="url(#blobGradient2)" opacity="0" />
  
  <!-- Blob Shape 3 (for morphing) -->
  <path id="blob3" d="M100,25 Q145,35 165,95 Q145,155 100,165 Q55,155 35,95 Q55,35 100,25 Z" 
        fill="url(#blobGradient3)" opacity="0" />
  
  <defs>
    <linearGradient id="blobGradient1" x1="0%" y1="0%" x2="100%" y2="100%">
      <stop offset="0%" style="stop-color:#0018A8;stop-opacity:0.3" />
      <stop offset="100%" style="stop-color:#0025D9;stop-opacity:0.5" />
    </linearGradient>
    
    <linearGradient id="blobGradient2" x1="0%" y1="0%" x2="100%" y2="100%">
      <stop offset="0%" style="stop-color:#6366F1;stop-opacity:0.3" />
      <stop offset="100%" style="stop-color:#8B5CF6;stop-opacity:0.5" />
    </linearGradient>
    
    <linearGradient id="blobGradient3" x1="0%" y1="0%" x2="100%" y2="100%">
      <stop offset="0%" style="stop-color:#06B6D4;stop-opacity:0.3" />
      <stop offset="100%" style="stop-color:#3B82F6;stop-opacity:0.5" />
    </linearGradient>
  </defs>
</svg>
